<svg width="48" height="43" viewBox="0 0 48 43" fill="none" xmlns="http://www.w3.org/2000/svg">
<path d="M45 18.0038H9.42L20.31 4.92375C20.8192 4.3111 21.0642 3.52126 20.9911 2.72798C20.9179 1.93471 20.5326 1.20297 19.92 0.693757C19.3073 0.184541 18.5175 -0.0604447 17.7242 0.0126945C16.9309 0.0858337 16.1992 0.471107 15.69 1.08376L0.69 19.0838C0.589082 19.2269 0.498838 19.3773 0.42 19.5338C0.42 19.6838 0.42 19.7738 0.21 19.9238C0.074021 20.2677 0.00282336 20.6339 0 21.0038C0.00282336 21.3736 0.074021 21.7398 0.21 22.0838C0.21 22.2338 0.21 22.3238 0.42 22.4738C0.498838 22.6302 0.589082 22.7806 0.69 22.9238L15.69 40.9237C15.9721 41.2624 16.3253 41.5347 16.7245 41.7214C17.1238 41.9081 17.5593 42.0045 18 42.0037C18.701 42.0051 19.3803 41.761 19.92 41.3137C20.2238 41.0619 20.4749 40.7526 20.6589 40.4036C20.843 40.0545 20.9564 39.6726 20.9926 39.2797C21.0288 38.8867 20.9872 38.4905 20.8701 38.1137C20.7529 37.7369 20.5626 37.3869 20.31 37.0837L9.42 24.0038H45C45.7956 24.0038 46.5587 23.6877 47.1213 23.1251C47.6839 22.5625 48 21.7994 48 21.0038C48 20.2081 47.6839 19.445 47.1213 18.8824C46.5587 18.3198 45.7956 18.0038 45 18.0038Z" fill="white"/>
</svg>
