<svg width="120" height="120" viewBox="0 0 120 120" fill="none" xmlns="http://www.w3.org/2000/svg">
<circle cx="60" cy="60" r="58" stroke="white" stroke-width="4"/>
<path d="M81 56.9994H45.42L56.31 43.9194C56.8192 43.3067 57.0642 42.5169 56.9911 41.7236C56.9179 40.9303 56.5326 40.1986 55.92 39.6894C55.3074 39.1801 54.5175 38.9352 53.7242 39.0083C52.9309 39.0814 52.1992 39.4667 51.69 40.0794L36.69 58.0794C36.5891 58.2225 36.4988 58.3729 36.42 58.5294C36.42 58.6794 36.42 58.7694 36.21 58.9194C36.074 59.2633 36.0028 59.6295 36 59.9994C36.0028 60.3692 36.074 60.7354 36.21 61.0794C36.21 61.2294 36.21 61.3194 36.42 61.4694C36.4988 61.6258 36.5891 61.7762 36.69 61.9194L51.69 79.9193C51.9721 80.258 52.3253 80.5303 52.7245 80.717C53.1238 80.9037 53.5593 81.0001 54 80.9994C54.701 81.0007 55.3803 80.7566 55.92 80.3094C56.2238 80.0575 56.4749 79.7482 56.6589 79.3992C56.843 79.0501 56.9564 78.6682 56.9926 78.2753C57.0288 77.8823 56.9872 77.4861 56.8701 77.1093C56.7529 76.7325 56.5626 76.3825 56.31 76.0794L45.42 62.9994H81C81.7956 62.9994 82.5587 62.6833 83.1213 62.1207C83.6839 61.5581 84 60.795 84 59.9994C84 59.2037 83.6839 58.4406 83.1213 57.878C82.5587 57.3154 81.7956 56.9994 81 56.9994Z" fill="white"/>
</svg>
