<svg width="88" height="66" viewBox="0 0 88 66" fill="none" xmlns="http://www.w3.org/2000/svg">
<path d="M13.75 63.25C13.75 62.5207 14.0397 61.8212 14.5555 61.3055C15.0712 60.7897 15.7707 60.5 16.5 60.5H71.5C72.2293 60.5 72.9288 60.7897 73.4445 61.3055C73.9603 61.8212 74.25 62.5207 74.25 63.25C74.25 63.9793 73.9603 64.6788 73.4445 65.1945C72.9288 65.7103 72.2293 66 71.5 66H16.5C15.7707 66 15.0712 65.7103 14.5555 65.1945C14.0397 64.6788 13.75 63.9793 13.75 63.25ZM76.9505 5.5L77.0825 5.5055C78.1101 5.57546 79.1147 5.84248 80.0415 6.292C80.7089 6.60263 81.2821 7.08468 81.7025 7.689C82.071 8.239 82.5 9.2125 82.5 11V43.9505L82.4945 44.0825C82.424 45.1101 82.157 46.1145 81.708 47.0415C81.3971 47.7088 80.9151 48.2819 80.311 48.7025C79.761 49.071 78.7875 49.5 77 49.5H11.0495L10.9175 49.4945C9.88994 49.424 8.88545 49.157 7.9585 48.708C7.29121 48.3971 6.71812 47.9151 6.2975 47.311C5.929 46.761 5.5 45.7875 5.5 44V11.0495L5.5055 10.9175C5.57546 9.88985 5.84248 8.88526 6.292 7.9585C6.60285 7.29121 7.08485 6.71812 7.689 6.2975C8.239 5.929 9.2125 5.5 11 5.5H76.9505ZM77 0H11C0 0 0 11 0 11V44C0 55 11 55 11 55H77C88 55 88 44 88 44V11C88 0 77 0 77 0Z" fill="white"/>
</svg>
